<svg
    aria-hidden="true"
    focusable="false"
    data-prefix="fas"
    data-icon="bars"
    role="img"
    xmlns="http://www.w3.org/2000/svg"
    viewBox="0 0 512 512"
    width="1em"
>

<defs>
    <path id="hamburger"
        fill="currentColor"
        d="M16 132h416c8.837 0 16-7.163 16-16V76c0-8.837-7.163-16-16-16H16C7.163 60 0 67.163 0 76v40c0 8.837 7.163 16 16 16zm0 160h416c8.837 0 16-7.163 16-16v-40c0-8.837-7.163-16-16-16H16c-8.837 0-16 7.163-16 16v40c0 8.837 7.163 16 16 16zm0 160h416c8.837 0 16-7.163 16-16v-40c0-8.837-7.163-16-16-16H16c-8.837 0-16 7.163-16 16v40c0 8.837 7.163 16 16 16z"
    ></path>

    <g id="sign-out" className="fa-group">
        <path
            className="fa-secondary"
            fill="currentColor"
            d="M64 160v192a32 32 0 0 0 32 32h84a12 12 0 0 1 12 12v40a12 12 0 0 1-12 12H96a96 96 0 0 1-96-96V160a96 96 0 0 1 96-96h84a12 12 0 0 1 12 12v40a12 12 0 0 1-12 12H96a32 32 0 0 0-32 32z"
            opacity="0.4"
        ></path>
        <path
            className="fa-primary"
            fill="currentColor"
            d="M288 424v-96H152a23.94 23.94 0 0 1-24-24v-96a23.94 23.94 0 0 1 24-24h136V88c0-21.4 25.9-32 41-17l168 168a24.2 24.2 0 0 1 0 34L329 441c-15 15-41 4.52-41-17z"
        ></path>
    </g>
</svg>
