<svg xmlns="http://www.w3.org/2000/svg" fill="none" viewBox="-0.5 -0.5 14 14" height="14" width="14">
<defs>
    <g id="PDF"><path id="Vector" stroke="#000" stroke-linecap="round" stroke-linejoin="round" d="M11.607142857142858 11.607142857142858c0 0.24625714285714287 -0.09787142857142857 0.48248571428571424 -0.27197857142857146 0.6565928571428571s-0.4103357142857143 0.27197857142857146 -0.6565928571428571 0.27197857142857146h-8.357142857142858c-0.2462757142857143 0 -0.48245785714285716 -0.09787142857142857 -0.6566021428571429 -0.27197857142857146C1.4906914285714286 12.089628571428573 1.3928571428571428 11.8534 1.3928571428571428 11.607142857142858v-10.214285714285715c0 -0.2462757142857143 0.09783428571428571 -0.48245785714285716 0.2719692857142857 -0.6565993571428572C1.8389707142857143 0.5621172142857144 2.0751528571428572 0.4642857142857143 2.3214285714285716 0.4642857142857143H8.357142857142858L11.607142857142858 3.7142857142857144v7.892857142857143Z" stroke-width="1"></path><path id="Vector 1238" stroke="#000" stroke-linecap="round" stroke-linejoin="round" d="M4.921010714285714 3.26534c-1.2013578571428574 0.35594000000000003 3.8076442857142854 6.391988571428572 4.341842142857144 5.010747857142857 0.5342257142857143 -1.381222142857143 -6.5793928571428575 0.39932285714285715 -5.407814285714286 1.3812407142857144 1.1715785714285716 0.9818714285714285 2.26733 -6.747928571428572 1.065972142857143 -6.391988571428572Z" stroke-width="1"></path></g>
    <g id="discord"><path id="Ellipse 1140" stroke="#000" d="M3.8182857142857145 6.035714285714286a0.4642857142857143 0.4642857142857143 0 1 0 0.9285714285714286 0 0.4642857142857143 0.4642857142857143 0 1 0 -0.9285714285714286 0" stroke-width="1"></path><path id="Ellipse 1141" stroke="#000" d="M7.996857142857143 6.035714285714286a0.4642857142857143 0.4642857142857143 0 1 0 0.9285714285714286 0 0.4642857142857143 0.4642857142857143 0 1 0 -0.9285714285714286 0" stroke-width="1"></path><path id="Vector 597" stroke="#000" stroke-linecap="round" stroke-linejoin="round" d="M0.7968294285714286 9.159818571428573c0 -2.2299457142857144 0.7964041428571429 -5.176655714285714 1.5928212857142858 -6.371272142857143 0 0 0.7964078571428572 -0.3981992857142857 3.9820392857142863 -0.3981992857142857s3.9820671428571432 0.3981992857142857 3.9820671428571432 0.3981992857142857c0.7963428571428572 1.1946164285714287 1.5927785714285716 4.141326428571428 1.5927785714285716 6.371272142857143 -0.26547857142857145 0.39824571428571426 -1.194607142857143 1.27426 -2.7874135714285715 1.592852857142857L7.7581492857142855 9.001432142857142c-0.4157585714285715 0.097695 -0.8889678571428572 0.15838642857142857 -1.3864592857142857 0.15838642857142857 -0.4974914285714286 0 -0.9707007142857143 -0.06069142857142858 -1.3864592857142857 -0.15838642857142857L3.584257857142857 10.75267142857143c-1.5928157142857144 -0.3185928571428572 -2.521962857142857 -1.194607142857143 -2.787428428571429 -1.592852857142857Z" stroke-width="1"></path><path id="Vector 598" stroke="#000" stroke-linecap="round" stroke-linejoin="round" d="M3.5842764285714286 8.363494285714287c0.24273785714285712 0.24273785714285712 0.7518178571428572 0.48547571428571423 1.4009635714285713 0.6380121428571428 0.4157585714285715 0.097695 0.8889678571428572 0.1583957142857143 1.3864592857142857 0.1583957142857143 0.4974914285714286 0 0.97071 -0.06070071428571429 1.3864685714285714 -0.1583957142857143 0.6491457142857143 -0.15253642857142857 1.1582257142857144 -0.39527428571428574 1.4009635714285713 -0.6380121428571428" stroke-width="1"></path></g>
    <g id="qr"><path id="Vector" stroke="#000" stroke-linecap="round" stroke-linejoin="round" d="M5.571428571428571 2.7857142857142856H3.7142857142857144c-0.5128314285714286 0 -0.9285714285714286 0.41574 -0.9285714285714286 0.9285714285714286v1.8571428571428572c0 0.5128314285714286 0.41574 0.9285714285714286 0.9285714285714286 0.9285714285714286h1.8571428571428572c0.5128314285714286 0 0.9285714285714286 -0.41574 0.9285714285714286 -0.9285714285714286V3.7142857142857144c0 -0.5128314285714286 -0.41574 -0.9285714285714286 -0.9285714285714286 -0.9285714285714286Z" stroke-width="1"></path><path id="Vector_2" stroke="#000" stroke-linecap="round" stroke-linejoin="round" d="M2.7857142857142856 0.4642857142857143H1.3928571428571428C1.1465814285714286 0.4642857142857143 0.9103992857142857 0.5621172142857144 0.7362577857142857 0.7362577857142857 0.5621172142857144 0.9103992857142857 0.4642857142857143 1.1465814285714286 0.4642857142857143 1.3928571428571428V2.7857142857142856" stroke-width="1"></path><path id="Vector_3" stroke="#000" stroke-linecap="round" stroke-linejoin="round" d="M10.214285714285715 0.4642857142857143h1.3928571428571428c0.24625714285714287 0 0.48248571428571424 0.09783150000000002 0.6565928571428571 0.27197207142857144 0.17410714285714285 0.1741415 0.27197857142857146 0.41032364285714285 0.27197857142857146 0.6565993571428572V2.7857142857142856" stroke-width="1"></path><path id="Vector_4" stroke="#000" stroke-linecap="round" stroke-linejoin="round" d="M2.7857142857142856 12.535714285714286H1.3928571428571428c-0.2462757142857143 0 -0.48245785714285716 -0.09787142857142857 -0.6565993571428572 -0.27197857142857146C0.5621172142857144 12.089628571428573 0.4642857142857143 11.8534 0.4642857142857143 11.607142857142858V10.214285714285715" stroke-width="1"></path><path id="Vector_5" stroke="#000" stroke-linecap="round" stroke-linejoin="round" d="M10.214285714285715 12.535714285714286h1.3928571428571428c0.24625714285714287 0 0.48248571428571424 -0.09787142857142857 0.6565928571428571 -0.27197857142857146s0.27197857142857146 -0.4103357142857143 0.27197857142857146 -0.6565928571428571V10.214285714285715" stroke-width="1"></path><path id="Vector_6" stroke="#000" stroke-linecap="round" stroke-linejoin="round" d="M2.7857142857142856 8.821428571428571V10.214285714285715h1.3928571428571428" stroke-width="1"></path><path id="Vector_7" stroke="#000" stroke-linecap="round" stroke-linejoin="round" d="M6.5 10.214285714285715V8.821428571428571H5.107142857142858" stroke-width="1"></path><path id="Vector_8" stroke="#000" stroke-linecap="round" stroke-linejoin="round" d="M10.214285714285715 4.178571428571429H8.821428571428571V2.7857142857142856" stroke-width="1"></path><path id="Vector_9" stroke="#000" stroke-linecap="round" stroke-linejoin="round" d="M10.214285714285715 7.428571428571429V6.035714285714286H8.821428571428571" stroke-width="1"></path><path id="Vector_10" stroke="#000" stroke-linecap="round" stroke-linejoin="round" d="M8.821428571428571 8.821428571428571V10.214285714285715H10.214285714285715" stroke-width="1"></path></g>
    <g id="information-circle"><path id="Vector" stroke="#000" stroke-linecap="round" stroke-linejoin="round" d="M6.5 12.535714285714286c3.3334785714285715 0 6.035714285714286 -2.702235714285714 6.035714285714286 -6.035714285714286C12.535714285714286 3.1665678571428573 9.833478571428572 0.4642857142857143 6.5 0.4642857142857143 3.1665678571428573 0.4642857142857143 0.4642857142857143 3.1665678571428573 0.4642857142857143 6.5c0 3.3334785714285715 2.702282142857143 6.035714285714286 6.035714285714286 6.035714285714286Z" stroke-width="1"></path><path id="Vector_2" stroke="#000" stroke-linecap="round" stroke-linejoin="round" d="M5.107142857142858 9.285714285714286h2.7857142857142856" stroke-width="1"></path><path id="Vector_3" stroke="#000" stroke-linecap="round" stroke-linejoin="round" d="M6.5 9.285714285714286V6.035714285714286H5.571428571428571" stroke-width="1"></path><g id="Group 2605"><path id="Ellipse 1111" stroke="#000" stroke-linecap="round" stroke-linejoin="round" d="M6.5 3.9464285714285716c-0.12820785714285715 0 -0.23214285714285715 -0.103935 -0.23214285714285715 -0.23214285714285715s0.103935 -0.23214285714285715 0.23214285714285715 -0.23214285714285715" stroke-width="1"></path><path id="Ellipse 1112" stroke="#000" stroke-linecap="round" stroke-linejoin="round" d="M6.5 3.9464285714285716c0.12820785714285715 0 0.23214285714285715 -0.103935 0.23214285714285715 -0.23214285714285715s-0.103935 -0.23214285714285715 -0.23214285714285715 -0.23214285714285715" stroke-width="1"></path></g></g>
    <g id="download"><path id="Vector" stroke="#000" stroke-linecap="round" stroke-linejoin="round" d="M11.607142857142858 11.607142857142858c0 0.24625714285714287 -0.09787142857142857 0.48248571428571424 -0.27197857142857146 0.6565928571428571s-0.4103357142857143 0.27197857142857146 -0.6565928571428571 0.27197857142857146h-8.357142857142858c-0.2462757142857143 0 -0.48245785714285716 -0.09787142857142857 -0.6566021428571429 -0.27197857142857146C1.4906914285714286 12.089628571428573 1.3928571428571428 11.8534 1.3928571428571428 11.607142857142858v-10.214285714285715c0 -0.2462757142857143 0.09783428571428571 -0.48245785714285716 0.2719692857142857 -0.6565993571428572C1.8389707142857143 0.5621172142857144 2.0751528571428572 0.4642857142857143 2.3214285714285716 0.4642857142857143H8.357142857142858L11.607142857142858 3.7142857142857144v7.892857142857143Z" stroke-width="1"></path><path id="vector 377" stroke="#000" stroke-linecap="round" stroke-linejoin="round" d="m8.357142857142858 7.428571428571429 -1.8571428571428572 1.8571428571428572 -1.8571428571428572 -1.8571428571428572" stroke-width="1"></path><path id="vector 378" stroke="#000" stroke-linecap="round" stroke-linejoin="round" d="m6.5 9.285714285714286 0 -5.107142857142858" stroke-width="1"></path></g>
    <g id="calendar-date"><path id="Vector" stroke="#000" stroke-linecap="round" stroke-linejoin="round" d="M1.3928571428571428 1.8571428571428572c-0.2462757142857143 0 -0.48245785714285716 0.09783428571428571 -0.6565993571428572 0.2719692857142857C0.5621172142857144 2.3032564285714288 0.4642857142857143 2.5394385714285717 0.4642857142857143 2.7857142857142856v8.821428571428571c0 0.24625714285714287 0.09783150000000002 0.48248571428571424 0.27197207142857144 0.6565928571428571 0.1741415 0.17410714285714285 0.41032364285714285 0.27197857142857146 0.6565993571428572 0.27197857142857146h10.214285714285715c0.24625714285714287 0 0.48248571428571424 -0.09787142857142857 0.6565928571428571 -0.27197857142857146s0.27197857142857146 -0.4103357142857143 0.27197857142857146 -0.6565928571428571V2.7857142857142856c0 -0.2462757142857143 -0.09787142857142857 -0.48245785714285716 -0.27197857142857146 -0.6566021428571429C12.089628571428573 1.954977142857143 11.8534 1.8571428571428572 11.607142857142858 1.8571428571428572h-1.8571428571428572" stroke-width="1"></path><path id="Vector_2" stroke="#000" stroke-linecap="round" stroke-linejoin="round" d="M3.25 0.4642857142857143v2.7857142857142856" stroke-width="1"></path><path id="Vector_3" stroke="#000" stroke-linecap="round" stroke-linejoin="round" d="M9.75 0.4642857142857143v2.7857142857142856" stroke-width="1"></path><path id="Vector_4" stroke="#000" stroke-linecap="round" stroke-linejoin="round" d="M3.25 1.8571428571428572h4.642857142857143" stroke-width="1"></path><path id="vector 1240" stroke="#000" stroke-linecap="round" stroke-linejoin="round" d="M4.103310714285715 7.637026428571429h4.793257857142858" stroke-width="1"></path><path id="vector 1262" stroke="#000" stroke-linecap="round" stroke-linejoin="round" d="m7.095771428571429 9.438185714285714 1.8011685714285717 -1.8011407142857143L7.095771428571429 5.835876428571429" stroke-width="1"></path></g>
    <g id="calendar-add--add-calendar-date-day-month"><path id="Vector" stroke="#000" stroke-linecap="round" stroke-linejoin="round" d="M1.3928571428571428 1.8571428571428572c-0.2462757142857143 0 -0.48245785714285716 0.09783428571428571 -0.6565993571428572 0.2719692857142857C0.5621172142857144 2.3032564285714288 0.4642857142857143 2.5394385714285717 0.4642857142857143 2.7857142857142856v8.821428571428571c0 0.24625714285714287 0.09783150000000002 0.48248571428571424 0.27197207142857144 0.6565928571428571 0.1741415 0.17410714285714285 0.41032364285714285 0.27197857142857146 0.6565993571428572 0.27197857142857146h10.214285714285715c0.24625714285714287 0 0.48248571428571424 -0.09787142857142857 0.6565928571428571 -0.27197857142857146s0.27197857142857146 -0.4103357142857143 0.27197857142857146 -0.6565928571428571V2.7857142857142856c0 -0.2462757142857143 -0.09787142857142857 -0.48245785714285716 -0.27197857142857146 -0.6566021428571429C12.089628571428573 1.954977142857143 11.8534 1.8571428571428572 11.607142857142858 1.8571428571428572h-1.8571428571428572" stroke-width="1"></path><path id="Vector_2" stroke="#000" stroke-linecap="round" stroke-linejoin="round" d="M3.25 0.4642857142857143v2.7857142857142856" stroke-width="1"></path><path id="Vector_3" stroke="#000" stroke-linecap="round" stroke-linejoin="round" d="M9.75 0.4642857142857143v2.7857142857142856" stroke-width="1"></path><path id="Vector_4" stroke="#000" stroke-linecap="round" stroke-linejoin="round" d="M3.25 1.8571428571428572h4.642857142857143" stroke-width="1"></path><path id="Vector_5" stroke="#000" stroke-linecap="round" stroke-linejoin="round" d="M8.821428571428571 7.428571428571429h-4.642857142857143" stroke-width="1"></path><path id="Vector_6" stroke="#000" stroke-linecap="round" stroke-linejoin="round" d="M6.5 5.107142857142858v4.642857142857143" stroke-width="1"></path></g>
    <g id="add-circle"><path id="Vector" stroke="#000" stroke-linecap="round" stroke-linejoin="round" d="M6.5 12.535714285714286c3.3334785714285715 0 6.035714285714286 -2.702235714285714 6.035714285714286 -6.035714285714286C12.535714285714286 3.1665678571428573 9.833478571428572 0.4642857142857143 6.5 0.4642857142857143 3.1665678571428573 0.4642857142857143 0.4642857142857143 3.1665678571428573 0.4642857142857143 6.5c0 3.3334785714285715 2.702282142857143 6.035714285714286 6.035714285714286 6.035714285714286Z" stroke-width="1"></path><path id="Vector_2" stroke="#000" stroke-linecap="round" stroke-linejoin="round" d="M6.5 3.7142857142857144v5.571428571428571" stroke-width="1"></path><path id="Vector_3" stroke="#000" stroke-linecap="round" stroke-linejoin="round" d="M3.7142857142857144 6.5h5.571428571428571" stroke-width="1"></path></g>
    <g id="login"><path id="Vector" stroke="#000" stroke-linecap="round" stroke-linejoin="round" d="M8.821428571428571 9.75v1.8571428571428572c0 0.24625714285714287 -0.09783428571428571 0.48248571428571424 -0.2719692857142857 0.6565928571428571 -0.17414428571428572 0.17410714285714285 -0.4103264285714286 0.27197857142857146 -0.6566021428571429 0.27197857142857146h-6.5c-0.2462757142857143 0 -0.48245785714285716 -0.09787142857142857 -0.6565993571428572 -0.27197857142857146C0.5621172142857144 12.089628571428573 0.4642857142857143 11.8534 0.4642857142857143 11.607142857142858v-10.214285714285715c0 -0.2462757142857143 0.09783150000000002 -0.48245785714285716 0.27197207142857144 -0.6565993571428572C0.9103992857142857 0.5621172142857144 1.1465814285714286 0.4642857142857143 1.3928571428571428 0.4642857142857143h6.5c0.2462757142857143 0 0.48245785714285716 0.09783150000000002 0.6566021428571429 0.27197207142857144C8.723594285714286 0.9103992857142857 8.821428571428571 1.1465814285714286 8.821428571428571 1.3928571428571428v1.8571428571428572" stroke-width="1"></path><path id="Vector_2" stroke="#000" stroke-linecap="round" stroke-linejoin="round" d="M12.535714285714286 6.5h-7.428571428571429" stroke-width="1"></path><path id="Vector_3" stroke="#000" stroke-linecap="round" stroke-linejoin="round" d="m6.964285714285714 4.642857142857143 -1.8571428571428572 1.8571428571428572 1.8571428571428572 1.8571428571428572" stroke-width="1"></path></g>
    <g id="logout"><path id="Vector" stroke="#000" stroke-linecap="round" stroke-linejoin="round" d="M8.821428571428571 9.75v1.8571428571428572c0 0.24625714285714287 -0.09783428571428571 0.48248571428571424 -0.2719692857142857 0.6565928571428571 -0.17414428571428572 0.17410714285714285 -0.4103264285714286 0.27197857142857146 -0.6566021428571429 0.27197857142857146h-6.5c-0.2462757142857143 0 -0.48245785714285716 -0.09787142857142857 -0.6565993571428572 -0.27197857142857146C0.5621172142857144 12.089628571428573 0.4642857142857143 11.8534 0.4642857142857143 11.607142857142858v-10.214285714285715c0 -0.2462757142857143 0.09783150000000002 -0.48245785714285716 0.27197207142857144 -0.6565993571428572C0.9103992857142857 0.5621172142857144 1.1465814285714286 0.4642857142857143 1.3928571428571428 0.4642857142857143h6.5c0.2462757142857143 0 0.48245785714285716 0.09783150000000002 0.6566021428571429 0.27197207142857144C8.723594285714286 0.9103992857142857 8.821428571428571 1.1465814285714286 8.821428571428571 1.3928571428571428v1.8571428571428572" stroke-width="1"></path><path id="Vector_2" stroke="#000" stroke-linecap="round" stroke-linejoin="round" d="M6.035714285714286 6.5h6.5" stroke-width="1"></path><path id="Vector_3" stroke="#000" stroke-linecap="round" stroke-linejoin="round" d="m10.678571428571429 4.642857142857143 1.8571428571428572 1.8571428571428572 -1.8571428571428572 1.8571428571428572" stroke-width="1"></path></g>
    <g id="wrench"><path id="Union" stroke="#000" stroke-linecap="round" stroke-linejoin="round" d="M12.451771428571428 3.339542142857143c-0.017921428571428574 -0.097305 -0.05608571428571429 -0.18975357142857144 -0.11207857142857143 -0.27134714285714284 -0.05599285714285714 -0.0815842857142857 -0.12851428571428572 -0.15048428571428574 -0.2129214285714286 -0.20222428571428572l-1.8571428571428572 1.8571428571428572c-0.08663571428571429 0.08986714285714287 -0.19045 0.16135785714285716 -0.3053142857142857 0.21018214285714287 -0.11486428571428572 0.048824285714285716 -0.23845714285714284 0.07398857142857143 -0.3632571428571429 0.07398857142857143 -0.1248 0 -0.24830000000000002 -0.025164285714285715 -0.36320142857142856 -0.07398857142857143 -0.11487357142857144 -0.048824285714285716 -0.218725 -0.12031499999999999 -0.3053421428571429 -0.21018214285714287l-0.7057142857142857 -0.6314285714285715c-0.17014214285714285 -0.17357785714285717 -0.2654414285714286 -0.40694642857142854 -0.2654414285714286 -0.65s0.09529928571428571 -0.4764221428571429 0.2654414285714286 -0.65l1.857115 -1.8571428571428572c-0.040485714285714285 -0.09514328571428572 -0.1014 -0.18022457142857146 -0.17837857142857144 -0.24922300000000003 -0.07707142857142858 -0.0689975 -0.16825714285714286 -0.12022678571428573 -0.2673357142857143 -0.15006178571428572 -0.6479571428571429 -0.12922 -1.3192028571428571 -0.07390685714285714 -1.9372878571428573 0.15964278571428572 -0.6180850000000001 0.23354964285714286 -1.1581792857142859 0.635947 -1.5587928571428573 1.1613884285714287s-0.645645 1.152812142857143 -0.7072 1.8106771428571429c-0.05766428571428572 0.6162557142857144 0.04784928571428571 1.2360771428571429 0.3048871428571429 1.7975285714285714L0.7564356428571428 10.447821428571428C0.3885644285714286 10.815721428571429 0.3946651428571429 11.414 0.7699621428571428 11.774285714285714l0.5207242857142856 0.49994285714285713c0.36320142857142856 0.34867857142857145 0.9381264285714285 0.34440714285714286 1.2960814285714286 -0.009750000000000002l5.040592142857143 -4.985973571428572c0.5451828571428572 0.2251507142857143 1.1390414285714288 0.31079285714285715 1.7275328571428572 0.24770571428571428 0.6506500000000001 -0.06975428571428573 1.2692642857142857 -0.3186207142857143 1.7869428571428574 -0.7189278571428571 0.5177714285714285 -0.4003164285714286 0.9142714285714286 -0.9363714285714285 1.1454857142857144 -1.5485785714285714 0.23130714285714285 -0.6121978571428572 0.28822857142857145 -1.276544285714286 0.16445 -1.919162142857143Z" stroke-width="1"></path></g>
    <g id="pencil"><path id="Vector" stroke="#000" stroke-linecap="round" stroke-linejoin="round" d="M4.642857142857143 11.365714285714287 0.4642857142857143 12.535714285714286l1.1700000000000002 -4.178552857142857L9.285714285714286 0.7428766428571428c0.08645 -0.08844271428571429 0.1898 -0.15871607142857141 0.3037357142857143 -0.20669257142857145 0.11402857142857144 -0.047977428571428574 0.23650714285714286 -0.07269135714285715 0.3601928571428572 -0.07269135714285715 0.1236857142857143 0 0.24616428571428572 0.02471392857142857 0.3601928571428572 0.07269135714285715 0.11393571428571429 0.0479765 0.2172857142857143 0.11824985714285713 0.3037357142857143 0.20669257142857145L12.257142857142856 2.3957328571428573c0.08700714285714287 0.08632000000000001 0.15609285714285714 0.18902928571428573 0.20326428571428573 0.30217571428571427 0.04717142857142857 0.11315571428571429 0.07140714285714285 0.23452928571428575 0.07140714285714285 0.35711 0 0.12258071428571428 -0.024235714285714288 0.24395428571428573 -0.07140714285714285 0.35711 -0.04717142857142857 0.11315571428571429 -0.11625714285714286 0.2158557142857143 -0.20326428571428573 0.30217571428571427L4.642857142857143 11.365714285714287Z" stroke-width="1"></path></g>
    <g id="horizontal-menu-circle--navigation-dots-three-circle-button-horizontal-menu"><path id="Vector" stroke="#000" stroke-linecap="round" stroke-linejoin="round" d="M6.5 12.535714285714286c3.3334785714285715 0 6.035714285714286 -2.702235714285714 6.035714285714286 -6.035714285714286C12.535714285714286 3.1665678571428573 9.833478571428572 0.4642857142857143 6.5 0.4642857142857143 3.1665678571428573 0.4642857142857143 0.4642857142857143 3.1665678571428573 0.4642857142857143 6.5c0 3.3334785714285715 2.702282142857143 6.035714285714286 6.035714285714286 6.035714285714286Z" stroke-width="1"></path><g id="Group 2606"><path id="Ellipse 1111" stroke="#000" stroke-linecap="round" stroke-linejoin="round" d="M3.7142857142857144 6.732142857142858c-0.12820785714285715 0 -0.23214285714285715 -0.103935 -0.23214285714285715 -0.23214285714285715s0.103935 -0.23214285714285715 0.23214285714285715 -0.23214285714285715" stroke-width="1"></path><path id="Ellipse 1112" stroke="#000" stroke-linecap="round" stroke-linejoin="round" d="M3.7142857142857144 6.732142857142858c0.12820785714285715 0 0.23214285714285715 -0.103935 0.23214285714285715 -0.23214285714285715s-0.103935 -0.23214285714285715 -0.23214285714285715 -0.23214285714285715" stroke-width="1"></path></g><g id="Group 2632"><path id="Ellipse 1111_2" stroke="#000" stroke-linecap="round" stroke-linejoin="round" d="M6.5 6.732142857142858c-0.12820785714285715 0 -0.23214285714285715 -0.103935 -0.23214285714285715 -0.23214285714285715s0.103935 -0.23214285714285715 0.23214285714285715 -0.23214285714285715" stroke-width="1"></path><path id="Ellipse 1112_2" stroke="#000" stroke-linecap="round" stroke-linejoin="round" d="M6.5 6.732142857142858c0.12820785714285715 0 0.23214285714285715 -0.103935 0.23214285714285715 -0.23214285714285715s-0.103935 -0.23214285714285715 -0.23214285714285715 -0.23214285714285715" stroke-width="1"></path></g><g id="Group 2633"><path id="Ellipse 1111_3" stroke="#000" stroke-linecap="round" stroke-linejoin="round" d="M9.285714285714286 6.732142857142858c-0.12820785714285715 0 -0.23214285714285715 -0.103935 -0.23214285714285715 -0.23214285714285715s0.103935 -0.23214285714285715 0.23214285714285715 -0.23214285714285715" stroke-width="1"></path><path id="Ellipse 1112_3" stroke="#000" stroke-linecap="round" stroke-linejoin="round" d="M9.285714285714286 6.732142857142858c0.1282357142857143 0 0.23214285714285715 -0.103935 0.23214285714285715 -0.23214285714285715s-0.10390714285714286 -0.23214285714285715 -0.23214285714285715 -0.23214285714285715" stroke-width="1"></path></g></g>
</svg>
