<?xml version="1.0" encoding="UTF-8" standalone="no"?>
<!DOCTYPE svg PUBLIC "-//W3C//DTD SVG 1.1//EN" "http://www.w3.org/Graphics/SVG/1.1/DTD/svg11.dtd">
<svg width="100%" height="100%" viewBox="0 0 240 240" version="1.1" xmlns="http://www.w3.org/2000/svg" xmlns:xlink="http://www.w3.org/1999/xlink" xml:space="preserve" xmlns:serif="http://www.serif.com/" style="fill-rule:evenodd;clip-rule:evenodd;stroke-linejoin:round;stroke-miterlimit:2;">
    <g>
        <path d="M111.65,233.4C110.3,231.25 110,230 110,226C110,220.2 109.8,220 103.1,220C100.3,220 97.9,219.8 97.75,219.5C97.6,219.25 96.25,219 94.75,219C93.25,219 91.9,218.8 91.75,218.5C91.6,218.25 90.9,218 90.25,218C89.6,218 88.9,217.8 88.75,217.5C88.6,217.25 87.9,217 87.25,217C86.6,217 85.9,216.8 85.75,216.5C85.6,216.25 84.9,216 84.25,216C83.6,216 82.9,215.8 82.75,215.5C82.6,215.25 82.05,215 81.5,215C81,215 79.3,214.35 77.75,213.5C76.2,212.7 74.6,212 74.3,212C73.45,212 70.6,210.55 70.25,209.95C70.05,209.7 69,209.05 67.8,208.5C66.65,208 65.35,207.2 65,206.75C64.65,206.35 64.1,206 63.7,206C63.35,206 62.7,205.5 62.3,204.9L61.5,203.8L60.7,204.9C60.3,205.5 59.65,206 59.3,206C58.95,206 58.25,206.45 57.75,207C57.25,207.55 56.45,208 55.95,208C55.45,208 54.25,208.45 53.25,209C52.25,209.55 50.8,210 50,210C49.2,210 48.4,210.25 48.25,210.5C48.1,210.8 47.2,211 46.25,211C45.3,211 44.4,211.25 44.25,211.5C44.1,211.8 42.15,212 40,212C37.85,212 35.9,211.8 35.75,211.5C35.6,211.25 34.45,211 33.25,211C32.05,211 30.9,210.8 30.75,210.5C30.6,210.25 30.05,210 29.55,210C27.9,210 19.8,205.5 17.55,203.35C16.3,202.15 14.85,201 14.35,200.85C13.9,200.65 13.3,200 13.05,199.35C12.8,198.75 12.25,197.9 11.8,197.55C11.35,197.2 11,196.6 11,196.25C11,195.9 10.65,195.35 10.25,195C9.3,194.2 8,191.6 8,190.45C8,189.95 7.75,189.4 7.5,189.25C7.2,189.1 7,188.4 7,187.75C7,187.1 6.75,186.4 6.5,186.25C6.2,186.1 6,185.2 6,184.25C6,183.3 5.8,182.4 5.5,182.25C4.85,181.85 4.85,173.15 5.5,172.75C5.75,172.6 6,171.45 6,170.25C6,169.05 6.2,167.9 6.5,167.75C6.75,167.6 7,167.05 7,166.6C7,165.5 10.35,158.75 11.25,158C11.65,157.65 12,157.1 12,156.8C12,156.1 17.1,151 17.8,151C18.1,151 18.95,150.35 19.75,149.5C20.55,148.7 21.45,148 21.75,148C22.05,148 22.9,147.35 23.65,146.6C25,145.2 25.45,142.85 24.5,142.25C24.25,142.1 24,140.75 24,139.3C24,137.9 23.8,136.5 23.5,136.2C23.25,135.95 23,134.05 22.9,132L22.75,128.25L13.5,128C8.4,127.85 3.75,127.55 3.15,127.3C1.55,126.7 1.55,123.6 3.15,122.1C4.2,121.1 4.85,121 13.5,120.9L22.75,120.75L22.9,118C23,116.5 23.25,115.05 23.55,114.8C23.8,114.5 24,113.1 24,111.7C24,110.25 24.25,108.9 24.5,108.75C24.8,108.6 25,107.7 25,106.75C25,105.8 25.25,104.9 25.5,104.75C25.8,104.6 26,103.7 26,102.75C26,101.8 26.25,100.9 26.5,100.75C26.8,100.6 27,99.9 27,99.25C27,98.6 27.25,97.9 27.5,97.75C27.8,97.6 28,97 28,96.5C28,95.95 28.45,94.75 29,93.75C29.55,92.75 30,91.45 30,90.8C30,89.55 28.6,88 27.45,88C26.4,88 21.7,85.6 21,84.75C20.65,84.35 20.1,84 19.8,84C19.45,84 18.55,83.3 17.75,82.5C16.95,81.65 16.05,81 15.75,81C15.05,81 13,78.9 13,78.2C13,77.9 12.45,77.15 11.75,76.5C10.15,75 7,68.65 7,66.9C7,66.15 6.75,65.4 6.5,65.25C6.2,65.05 6,62.25 6,58.5C6,54.75 6.2,51.95 6.5,51.75C6.75,51.6 7,50.8 7,50.05C7,48.55 9.15,43.9 10.25,43C10.65,42.65 11,42.1 11,41.8C11,41.05 17.1,35 17.85,35C18.15,35 18.65,34.65 19,34.25C19.75,33.35 26.5,30 27.6,30C28.05,30 28.6,29.8 28.75,29.5C28.95,29.2 32.1,29 36.5,29C40.9,29 44.05,29.2 44.25,29.5C44.4,29.8 44.95,30 45.4,30C46.75,30 53.2,33.4 54.5,34.75C55.15,35.45 55.95,36 56.35,36C56.7,36 57,36.3 57,36.65C57,37 58,38.3 59.3,39.5C60.65,40.9 62.35,43.35 63.55,45.9C64.65,48.15 65.85,50 66.2,50C67.05,50 69.9,48.55 70.25,47.95C70.45,47.7 71.5,47.05 72.7,46.5C73.85,46 75.15,45.2 75.5,44.75C75.85,44.35 76.5,44 77,44C77.5,44 79.2,43.35 80.75,42.5C82.3,41.7 84,41 84.5,41C85.05,41 85.6,40.8 85.75,40.5C85.9,40.25 86.6,40 87.25,40C87.9,40 88.6,39.8 88.75,39.5C88.9,39.25 89.6,39 90.25,39C90.9,39 91.6,38.75 91.75,38.5C91.9,38.2 93.05,38 94.25,38C95.45,38 96.6,37.75 96.75,37.5C96.9,37.25 98.45,37 100.2,37C101.9,37 103.5,36.8 103.8,36.55C104.05,36.25 105.5,36 107,35.9L109.75,35.75L109.9,31C110.05,25.4 110.9,24 114,24C117.1,24 117.95,25.4 118.1,31L118.25,35.75L121.5,35.9C123.3,36 124.95,36.25 125.2,36.55C125.5,36.8 126.9,37 128.3,37C129.75,37 131.1,37.25 131.25,37.5C131.4,37.8 132.55,38 133.75,38C134.95,38 136.1,38.2 136.25,38.5C136.4,38.75 137.1,39 137.75,39C138.4,39 139.1,39.25 139.25,39.5C139.4,39.8 140.2,40 141,40C141.8,40 143.25,40.45 144.25,41C145.25,41.55 146.35,42 146.75,42C147.15,42 148.25,42.45 149.25,43C150.25,43.55 151.3,44 151.65,44C152.55,44 159.35,47.45 160,48.25C160.35,48.65 160.9,49 161.25,49C161.55,49 162.25,49.45 162.75,50C163.25,50.55 163.9,51 164.25,51C164.6,51 165.25,51.45 165.75,52C166.25,52.55 166.9,53 167.25,53C167.55,53 168.45,53.65 169.25,54.5C170.05,55.3 170.95,56 171.25,56C171.9,56 185,69.1 185,69.8C185,70.1 185.7,70.95 186.5,71.75C187.35,72.55 188,73.45 188,73.75C188,74.1 188.45,74.75 189,75.25C189.55,75.75 190,76.45 190,76.75C190,77.1 190.35,77.65 190.75,78C191.2,78.35 192,79.65 192.5,80.8C193.05,82 193.7,83.1 194,83.25C194.25,83.4 194.85,84.4 195.3,85.4C197,89.1 196.65,89 206.7,89.05C214.4,89.05 216,89.2 217.25,89.95L218.75,90.85L218.9,112.25C219,131.85 218.95,133.75 218.15,134.6C216.55,136.35 214.4,136.95 209.25,137.1L204.25,137.25L204.1,140C204,141.5 203.75,142.95 203.45,143.25C203.2,143.5 203,144.9 203,146.3C203,147.75 202.8,149.1 202.5,149.25C202.25,149.4 202,150.55 202,151.75C202,152.95 201.8,154.1 201.5,154.25C201.25,154.4 201,155.3 201,156.25C201,157.2 200.8,158.1 200.5,158.25C200.25,158.4 200,159.1 200,159.75C200,160.4 199.8,161.1 199.5,161.25C199.25,161.4 199,162 199,162.5C199,163.05 198.55,164.25 198,165.25C197.45,166.25 197,167.3 197,167.7C197,168.5 194.85,172.75 193.9,173.9C193.5,174.35 192.8,175.55 192.35,176.55C191.9,177.55 191.2,178.65 190.75,179C190.35,179.35 190,179.85 190,180.15C190,180.45 189.3,181.45 188.4,182.35C187.15,183.65 186.95,184.15 187.4,184.6C187.85,185.05 188.15,185.05 188.6,184.6C188.95,184.25 189.7,184 190.3,184C190.95,184 191.6,183.8 191.75,183.5C191.9,183.25 194.05,183 196.5,183C198.95,183 201.1,183.25 201.25,183.5C201.4,183.8 202.2,184 202.95,184C204.45,184 209.1,186.15 210,187.25C210.35,187.65 210.9,188 211.2,188C211.95,188 215,191.1 215,191.85C215,192.15 215.35,192.65 215.75,193C216.85,193.9 219,198.55 219,200C219,200.7 219.2,201.5 219.5,201.8C219.75,202.05 220,204.15 220.1,206.5L220.25,210.75L226.5,210.9C229.9,210.95 232.95,211.25 233.2,211.5C233.5,211.8 234.4,212 235.25,212C238.6,212 240.35,216.55 237.85,218.9L236.7,220L177.45,220.1L118.25,220.25L118.1,226C118,231.05 117.85,231.85 116.9,232.85C115.7,234.15 112.35,234.45 111.65,233.4Z" style="fill:rgb(8,20,25);fill-rule:nonzero;"/>
        <path d="M43.65,223.65C43.1,222.45 43.15,222.15 44.1,221.15C45.1,220.1 45.6,220 50,220C55.45,220 56,220.3 56,223.1L56,225L44.25,225L43.65,223.65Z" style="fill:rgb(8,20,25);fill-rule:nonzero;"/>
        <path d="M211.15,150.3C210.25,149.9 210,149.35 210,148C210,145.4 210.7,145 215,145C218.6,145 218.8,145.05 219.4,146.35C220.25,148.2 220.15,148.65 218.85,149.9C217.9,150.8 217.1,151 214.95,150.95C213.45,150.9 211.75,150.65 211.15,150.3Z" style="fill:rgb(8,20,25);fill-rule:nonzero;"/>
        <path d="M204.149,48.976C204.149,55.07 199.209,60.011 193.114,60.011C187.02,60.011 182.08,55.07 182.08,48.976C182.08,42.882 187.02,37.942 193.114,37.942C199.209,37.942 204.149,42.882 204.149,48.976Z" style="fill:rgb(8,20,25);fill-rule:nonzero;"/>
    </g>
    <g>
        <path d="M162.5,210.05C162.5,209.8 163.5,208.75 164.7,207.75C167.65,205.35 170.3,205.05 176.2,206.5C183.5,208.25 187.2,207 192.45,200.85C196.1,196.55 197.05,196 200.5,196C202,196 203.2,195.7 203.7,195.25C204.35,194.6 204.6,194.7 205.95,196.35C208.5,199.45 209.05,202.05 208.55,209.65C208.5,210.45 207.05,210.5 185.5,210.5C171.6,210.5 162.5,210.3 162.5,210.05Z" style="fill:rgb(13,135,154);fill-rule:nonzero;"/>
    </g>
    <g>
        <path d="M100.85,208.15C100.8,208.1 98.95,207.75 96.75,207.3C92.55,206.55 87.95,205.05 85.6,203.8C84.85,203.4 82.35,202.15 80.05,201C77.75,199.9 74.5,198 72.8,196.85C71.1,195.7 69.65,194.75 69.55,194.65C69.45,194.6 70.1,193.3 70.95,191.75C74,186.4 75.05,178.85 73.8,171.55C73,166.85 73.15,165.55 74.7,164.65C75.1,164.45 79.35,160.4 84.15,155.65C89,150.95 94.25,146.1 95.85,144.85L98.8,142.6L100,143.6C102.05,145.25 105.55,147.15 108.1,148L110.55,148.8L110.5,172.75C110.5,185.95 110.35,199.4 110.15,202.65L109.85,208.55L105.4,208.4C102.95,208.3 100.9,208.2 100.85,208.15Z" style="fill:rgb(245,39,57);fill-rule:nonzero;"/>
        <path d="M116.75,207.45C116.6,207.05 116.55,193.6 116.6,177.5L116.75,148.3L118.95,147.85C120.2,147.6 122.55,146.5 124.2,145.45L127.25,143.5L130.4,146.85C133.85,150.6 149.85,168.9 154.95,174.95C159.4,180.25 162.95,184.4 164.9,186.4C165.75,187.35 166.5,188.4 166.5,188.7C166.5,189.4 158,195.6 154.5,197.45C153.25,198.1 151,199.35 149.5,200.2C146,202.25 140.4,204.5 137.5,205C136.25,205.25 133.1,205.9 130.5,206.45C124,207.9 117.1,208.4 116.75,207.45Z" style="fill:rgb(245,39,57);fill-rule:nonzero;"/>
        <path d="M60.452,178.134C60.452,189.587 51.167,198.872 39.713,198.872C28.26,198.872 18.975,189.587 18.975,178.134C18.975,166.68 28.26,157.396 39.713,157.396C51.167,157.396 60.452,166.68 60.452,178.134Z" style="fill:rgb(245,39,57);fill-rule:nonzero;"/>
        <path d="M208.8,128.15C209,127.65 209.25,121 209.35,113.35C209.5,100 209.45,99.5 208.5,98.9C207.15,98.05 207.25,97.5 208.75,97.5C210.8,97.5 211,98.75 210.75,108.35C210.65,113.25 210.55,119.9 210.5,123.15C210.5,128.75 210.45,129 209.45,129C208.65,129 208.5,128.8 208.8,128.15Z" style="fill:rgb(245,39,57);fill-rule:nonzero;"/>
        <path d="M47.524,58.143C47.524,64.02 42.76,68.784 36.883,68.784C31.006,68.784 26.242,64.02 26.242,58.143C26.242,52.266 31.006,47.502 36.883,47.502C42.76,47.502 47.524,52.266 47.524,58.143Z" style="fill:rgb(245,39,57);fill-rule:nonzero;"/>
    </g>
    <g>
        <path d="M72.2,164.85C69.9,158.7 64.3,152.15 57.9,148C53.45,145.1 44.4,142.5 38.7,142.5C36.15,142.5 36.05,142.45 35.5,140.8C35,139.3 34,131.95 34.2,131.65C34.3,131.55 84.55,130.55 90.4,130.5C90.7,130.5 91,129.95 91,129.25C91,128.55 91.25,128 91.5,128C91.8,128 92,128.6 92,129.4C92,132.8 93.95,137.2 96.95,140.6C98.1,141.85 99,143 99,143.15C99,143.25 97.8,144.3 96.4,145.4C93,148 90.55,150.3 80.95,159.75L73.2,167.4L72.2,164.85Z" style="fill:rgb(251,162,7);fill-rule:nonzero;"/>
        <path d="M23.5,166C23.5,165.45 23.3,165 23,165C22.3,165 22.4,163.7 23.15,163.05C23.65,162.65 24.1,162.7 24.8,163.2C25.6,163.8 25.9,163.8 27,163.05C30.9,160.4 35,159.55 43.65,159.5C48,159.5 50.5,159.3 50.5,159C50.5,158.65 50.8,158.65 51.5,159C53.45,160.05 52.45,160.45 47.4,160.65C40.55,160.95 33.65,161.8 31.5,162.55C30.55,162.9 28.45,164.05 26.9,165.1C25.35,166.15 23.95,167 23.8,167C23.6,167 23.5,166.55 23.5,166Z" style="fill:rgb(251,162,7);fill-rule:nonzero;"/>
        <path d="M138.15,128.4C137.65,127.8 134.5,119.85 134.5,119.3C134.5,119.15 137.25,118.95 140.6,118.9C146.3,118.75 146.75,118.7 146.95,117.75C147.05,117.2 147.75,115.9 148.55,114.9C149.35,113.9 150.3,112.3 150.6,111.4C151.8,107.85 156.95,102.1 160.5,100.25C163.85,98.55 169.5,97 172.4,97C175.25,97 179.2,98.3 181.3,99.95C182,100.5 182.8,100.85 183,100.75C183.25,100.6 183.55,100.7 183.75,101C184.65,102.45 194.45,100.95 197.15,98.95C199.25,97.4 206.75,96.9 208.75,98.2L210,99L209.95,113.15C209.9,120.9 209.7,127.65 209.45,128.15C209,128.95 206.8,129 173.8,129C146.25,129 138.5,128.85 138.15,128.4Z" style="fill:rgb(251,162,7);fill-rule:nonzero;"/>
        <path d="M34.75,120C34.35,119.35 35.75,110.15 37.1,104.75L38.25,100.3L41.25,100.1C42.9,100 44.55,99.65 44.9,99.35C45.25,99.05 46.15,97.55 46.9,96.05C49.55,90.55 52.6,85.45 53.6,84.95C54.4,84.5 55.05,84.8 57.35,86.6C58.9,87.8 61.4,89.7 62.9,90.9C65.8,93.1 67.15,93.45 68.65,92.3C70.05,91.25 69.65,89.75 67.35,87.7C66.2,86.7 63.95,84.65 62.35,83.2L59.45,80.5L61.6,77.2C62.75,75.35 63.8,74.1 63.9,74.4C64,74.7 66.15,73.35 68.65,71.35C74.9,66.45 76.3,65.45 79.5,63.65C82.85,61.8 89.1,59.05 91.5,58.4C92.45,58.15 93.7,57.75 94.25,57.5C95.9,56.75 105.45,55 107.95,55L110.35,55L110.65,73.85C110.85,84.2 111,95.4 111,98.75L111,104.85L109,105.15C105.8,105.55 100.95,108.15 98.1,110.9C95.65,113.3 93,117.9 93,119.75C93,120.4 89.2,120.5 64.05,120.5C45.7,120.5 34.95,120.3 34.75,120Z" style="fill:rgb(251,162,7);fill-rule:nonzero;"/>
        <path d="M128.55,110.25C125.35,107.5 122.95,106.2 119.35,105.3L116.75,104.65L116.6,78.7C116.55,61.8 116.65,52.65 117,52.3C117.35,51.95 117.5,52.15 117.5,52.9C117.5,54.35 119.2,55 123.1,55C126.35,55 127.4,55.25 135.25,57.65C140.25,59.2 153.85,65.75 155.8,67.55C157.1,68.75 157.5,68.75 159,67.35C159.7,66.75 161.05,65.6 162.05,64.85L163.85,63.5L168.15,68.4C173.95,75 177.25,79.1 179.85,83.1C181.55,85.7 182.55,86.75 184.4,87.6C186.2,88.5 187,89.3 187.9,91.15C188.55,92.4 189,93.7 188.9,93.95C188.85,94.25 187.75,93.75 186.5,92.9C182.6,90.25 175.4,87 171.5,86.2C165.15,84.85 159.05,86.1 153.4,89.85C147.25,93.9 142.5,100.55 141.55,106.5C141.3,108 140.85,109.85 140.55,110.65C140.05,111.95 139.85,112 136.65,112C134.75,112 132.8,112.15 132.25,112.3C131.55,112.45 130.45,111.85 128.55,110.25Z" style="fill:rgb(251,162,7);fill-rule:nonzero;"/>
        <path d="M24.5,60C24.2,59.45 24,57.85 24.1,56.45L24.25,53.9L28.25,51.7C30.45,50.5 32.7,49.5 33.25,49.5C34.05,49.5 33.95,49.8 32.45,51.4C29.85,54.15 27.25,57.55 26.3,59.4C25.35,61.3 25.2,61.3 24.5,60Z" style="fill:rgb(251,162,7);fill-rule:nonzero;"/>
        <path d="M197.315,48.961C197.315,51.213 195.489,53.039 193.237,53.039C190.984,53.039 189.158,51.213 189.158,48.961C189.158,46.708 190.984,44.882 193.237,44.882C195.489,44.882 197.315,46.708 197.315,48.961Z" style="fill:rgb(251,162,7);fill-rule:nonzero;"/>
    </g>
    <g>
        <path d="M162.5,208.75C162.5,205.5 165.25,202.25 168.85,201.2C171.25,200.5 171.75,200.5 174.35,201.25C175.9,201.7 178.25,202.6 179.55,203.25L181.9,204.45L183.45,201.25C185.2,197.75 188.45,194.05 191.05,192.7C192,192.25 194.2,191.75 196,191.65C198.9,191.45 199.5,191.6 201.9,193C205.7,195.25 205.3,196.5 200.75,196.5C197.6,196.5 196.55,197.15 192.95,201.35C187.6,207.6 183.6,208.9 175.75,207C170.2,205.65 168.05,205.9 165.2,208.25C164.05,209.2 162.95,210 162.8,210C162.65,210 162.5,209.45 162.5,208.75Z" style="fill:rgb(239,245,239);fill-rule:nonzero;"/>
        <path d="M24.25,163.7C23.3,162.95 23.3,162.85 25.85,160.5C31.45,155.35 37.75,153.95 45.55,156.25C48.8,157.2 51,158.4 51,159.25C51,159.9 49.85,160 44.25,160C40.6,160 36.35,160.25 34.9,160.55C32.2,161.15 27.2,163.3 26.7,164.05C26.3,164.7 25.4,164.55 24.25,163.7Z" style="fill:rgb(239,245,239);fill-rule:nonzero;"/>
        <path d="M34,132.05L34,128L91.5,128L91.5,130.9L79.4,131.2C72.7,131.35 59.75,131.6 50.65,131.8L34,132.05Z" style="fill:rgb(239,245,239);fill-rule:nonzero;"/>
        <path d="M147,115.15C147,112.05 148.25,106.4 149.45,104.05C152,99.05 159.5,93.95 165.25,93.25C170.4,92.6 175.75,94.65 182.5,99.95C184.1,101.2 183.35,102 181.6,100.85C176.2,97.45 172.55,96.85 167,98.5C161.7,100.1 159.1,101.55 156.25,104.6C153.2,107.8 151.85,109.7 151.1,111.85C150.5,113.7 148.1,117 147.45,117C147.2,117 147,116.15 147,115.15Z" style="fill:rgb(239,245,239);fill-rule:nonzero;"/>
        <path d="M38.55,100.1C38.55,99.65 39.3,97 40.15,94.3L41.75,89.35L45.15,88.4C47.05,87.9 49.5,87 50.6,86.45C51.7,85.9 52.7,85.55 52.85,85.7C53,85.85 52.25,87.5 51.2,89.35C50.15,91.2 48.55,94.25 47.65,96.05C46.75,97.9 45.7,99.6 45.35,99.9C45.05,100.15 43.35,100.5 41.65,100.65C38.85,100.95 38.5,100.9 38.55,100.1Z" style="fill:rgb(239,245,239);fill-rule:nonzero;"/>
        <path d="M63.5,75C63.5,74.7 64.05,73.2 64.7,71.6C65.35,70.05 66.3,67.45 66.75,65.9C67.5,63.2 67.8,62.9 70.9,60.85C79.1,55.4 86.6,52.1 96.1,49.75C100.95,48.5 109.3,47.4 110.15,47.85C110.35,47.95 110.5,49.75 110.5,51.8L110.5,55.5L108.3,55.5C105.9,55.5 96.35,57.25 94.75,58C94.2,58.25 92.95,58.65 92,58.9C89.6,59.55 83.35,62.3 80,64.15C76.8,65.95 75.4,66.95 69.15,71.85C64.65,75.4 63.5,76.05 63.5,75Z" style="fill:rgb(239,245,239);fill-rule:nonzero;"/>
        <path d="M155.6,68.3C153.05,66.15 139.95,59.75 134.75,58.15C126.9,55.75 125.85,55.5 122.6,55.5C120.95,55.5 119,55.3 118.3,55C117.1,54.55 117,54.3 117,51.2L117,47.85L121.9,48.15C127.9,48.45 137.3,50.55 143.25,52.85C149.6,55.3 164,63.05 164,64C164,64.2 163.5,64.7 162.9,65.15C162.25,65.55 160.85,66.7 159.75,67.65C158.65,68.65 157.6,69.5 157.4,69.5C157.25,69.5 156.4,68.95 155.6,68.3Z" style="fill:rgb(239,245,239);fill-rule:nonzero;"/>
        <path d="M39.284,57.534C39.284,59.362 37.802,60.844 35.975,60.844C34.147,60.844 32.665,59.362 32.665,57.534C32.665,55.706 34.147,54.224 35.975,54.224C37.802,54.224 39.284,55.706 39.284,57.534Z" style="fill:rgb(239,245,239);fill-rule:nonzero;"/>
        <path d="M24.5,53.85C24.5,52 27.3,48.1 29.8,46.5C32.9,44.55 35.8,44.15 38.7,45.25C40.95,46.1 43.85,48.3 43.35,48.8C43.25,48.95 41.25,49.1 38.9,49.15C35.3,49.25 34.25,49.5 31.25,50.95C29.3,51.85 27,53.2 26.15,53.85L24.5,55.05L24.5,53.85Z" style="fill:rgb(239,245,239);fill-rule:nonzero;"/>
    </g>
    <path d="M34.15,187.5C32.9,186.75 32.5,186.15 32.5,185.05C32.5,182.95 33.35,181 34.25,181C35.6,181 39.5,178.35 39.5,177.4C39.5,177.2 38.75,177 37.8,177C34.25,177 32.6,173.5 34.2,169.35C36.25,164 42.6,164.2 46.35,169.8C49.8,174.8 47.35,182.85 41.2,186.9C38.45,188.75 36.45,188.9 34.15,187.5Z" style="fill:rgb(8,20,25);fill-rule:nonzero;"/>
</svg>
